M48
;Layer_Color=9474304
;FILE_FORMAT=2:4
INCH,LZ
T6F00S00C0.0787
%
G90
G05
T06
G00X016265Y-000374
M15
G01X016376Y-000316
G01X016464Y-000227
G01X016518Y-000114
G01X016535Y0
G01X016535Y023031
G01X016516Y023155
G01X016458Y023266
G01X016368Y023353
G01X016256Y023408
G01X016142Y023425
G01X0Y023425
G01X-000124Y023405
G01X-000235Y023348
G01X-000322Y023258
G01X-000377Y023146
G01X-000394Y023031
G01X-000394Y0
G01X-000374Y-000124
G01X-000316Y-000235
G01X-000227Y-000322
G01X-000114Y-000377
G01X0Y-000394
G01X016142Y-000394
G01X016265Y-000374
M16
M17
M30
